<svg xmlns="http://www.w3.org/2000/svg" x="0px" y="0px" width="50" height="50" viewBox="0,0,256,256"
style="fill:#000000;">
<g fill="#157cd3" fill-rule="nonzero" stroke="none" stroke-width="1" stroke-linecap="butt" stroke-linejoin="miter" stroke-miterlimit="10" stroke-dasharray="" stroke-dashoffset="0" font-family="none" font-weight="none" font-size="none" text-anchor="none" style="mix-blend-mode: normal"><g transform="scale(2.56,2.56)"><path d="M73.44,90h-22.027c-7.292,0 -13.223,-5.935 -13.223,-13.226c0,-2.465 0.67,-4.821 1.92,-6.869c-2.432,-0.537 -4.661,-1.758 -6.458,-3.561c-5.149,-5.153 -5.153,-13.545 0,-18.701l11.071,-11.191l-18.168,-0.004c-7.291,0 -13.223,-5.934 -13.223,-13.226c0,-7.292 5.933,-13.222 13.224,-13.222h22.031c7.292,0 13.223,5.931 13.223,13.223c0,2.468 -0.67,4.827 -1.924,6.875c2.432,0.54 4.662,1.758 6.462,3.558c2.497,2.497 3.87,5.817 3.87,9.353c0,3.528 -1.373,6.853 -3.873,9.349l-11.072,11.194h18.167c7.292,0 13.227,5.931 13.227,13.223c0,7.29 -5.935,13.225 -13.227,13.225zM48.682,70.218l-1.892,1.911c-1.25,1.25 -1.934,2.897 -1.934,4.648c0,3.613 2.939,6.556 6.557,6.556h22.027c3.617,0 6.56,-2.942 6.56,-6.559c0,-3.617 -2.942,-6.557 -6.56,-6.557h-24.758zM54.099,36.452l-15.72,15.892c-2.565,2.571 -2.565,6.731 -0.007,9.29c1.23,1.237 2.871,1.918 4.623,1.918h2.903l15.72,-15.896c1.253,-1.25 1.934,-2.897 1.934,-4.648c0,-1.751 -0.681,-3.401 -1.921,-4.642c-1.233,-1.234 -2.878,-1.914 -4.632,-1.914zM26.556,16.667c-3.613,0 -6.556,2.942 -6.556,6.556c0,3.62 2.942,6.56 6.556,6.56l24.76,0.003l1.895,-1.914c1.253,-1.25 1.934,-2.897 1.934,-4.648c0,-3.613 -2.943,-6.556 -6.557,-6.556h-22.032z"></path></g></g>
</svg>
